<svg xmlns="http://www.w3.org/2000/svg" xmlns:xlink="http://www.w3.org/1999/xlink" width="165" height="23" viewBox="0 0 165 23"><defs><path id="5yhta" d="M319.33 43.36a.2.2 0 0 1-.18-.14 9.5 9.5 0 0 1 .83-7.52.19.19 0 0 1 .33 0l4.22 7.37a.2.2 0 0 1-.17.29zM328.06 31a.2.2 0 0 1 .17.29l-4.2 7.36a.19.19 0 0 1-.34 0l-2.5-4.4a.2.2 0 0 1 .02-.22 9.27 9.27 0 0 1 6.85-3.03zm8.73 6.48a.2.2 0 0 1 .18.14 9.5 9.5 0 0 1-.83 7.51.19.19 0 0 1-.33 0l-4.21-7.36a.2.2 0 0 1 .16-.29zm-.64-1.77a.2.2 0 0 1-.17.3h-8.43a.2.2 0 0 1-.16-.3l2.51-4.4a.2.2 0 0 1 .21-.08 9.35 9.35 0 0 1 6.04 4.48zm-7.6 9.12a.2.2 0 0 1 .17.29l-2.51 4.4a.2.2 0 0 1-.21.08 9.35 9.35 0 0 1-6.02-4.48.2.2 0 0 1 .16-.28zm6.4 1.75a.2.2 0 0 1-.03.23 9.27 9.27 0 0 1-6.86 3.03h-.01a.2.2 0 0 1-.17-.3l4.22-7.36a.19.19 0 0 1 .33 0zM253.14 43c.07.9.1 2.14.1 3.34v3.1c0 .1-.13.23-.23.23h-2.79c-.12 0-.23-.13-.23-.23V31.95c0-.18.13-.33.23-.33h5.65c4.4 0 6.49 2.63 6.49 5.73 0 3.5-2.39 5.72-6.77 5.72-.99 0-1.82-.02-2.45-.07zm5.85-5.63c0-1.94-.97-3.35-3.37-3.35-.84 0-1.67-.02-2.46-.07a69.76 69.76 0 0 1 0 6.82c.66-.05 1.47-.05 2.1-.05 2.46 0 3.73-1.02 3.73-3.35zm17.86 1.46c-.05-1.02-.05-2.12-.05-3.2v-3.75c0-.13.1-.26.23-.26h2.76c.1 0 .23.13.23.26v17.56c0 .1-.13.23-.23.23h-2.76c-.13 0-.23-.13-.23-.23v-4.48c0-1.2 0-2.42.05-3.57-1.01.05-1.62.05-2.48.05h-3.93c-.86 0-1.5 0-2.5-.05.05 1.15.07 2.37.07 3.57v4.48c0 .1-.13.23-.23.23h-2.78c-.13 0-.23-.13-.23-.23V31.88c0-.13.1-.26.23-.26h2.78c.1 0 .23.13.23.26v3.75c0 1.08-.02 2.18-.08 3.2.79-.05 1.65-.08 2.56-.08h3.83c.9 0 1.75.03 2.53.08zm24.4 1.53c0 5.78-3.85 9.64-9.12 9.64-5.04 0-9.11-3.78-9.11-9.64 0-5.72 4.23-9.33 9.11-9.33 4.87 0 9.12 3.5 9.12 9.33zm-3.57 0c0-4.55-2.28-6.7-5.52-6.7-3.3 0-5.57 2.13-5.57 6.7 0 4.2 1.95 7 5.54 7 3.73 0 5.55-2.78 5.55-7zm20.48-8.54v2.25c0 .1-.05.18-.18.18-.86 0-1.93-.05-2.81-.05-1.12 0-2.2-.02-3.32-.1.05.95.08 1.92.08 2.86v12.48c0 .1-.13.23-.23.23h-2.76c-.13 0-.23-.13-.23-.23V36.9c0-.94.02-1.92.08-2.81-1.02.08-2 .1-3.02.1-1.16 0-2.05.05-3.22.05-.12 0-.2-.07-.17-.2l.33-2.2c.02-.15.07-.23.17-.23H318c.13 0 .18.08.18.2zm21.8 17.85c-.13 0-.23-.13-.23-.23V31.88c0-.13.1-.26.23-.26h6.13c4.6 0 5.92 2.25 5.92 4.27 0 2.17-1.85 3.6-3.87 4.06 2.6.2 4.96 2.15 4.96 4.94 0 2.94-2.2 4.78-5.98 4.78zm8.74-13.12c0-1.7-.97-2.55-3.25-2.55-.76 0-1.8-.03-2.58-.08a31.8 31.8 0 0 1 0 5.34c.68-.07 1.44-.1 2.2-.1 2.59 0 3.63-1.05 3.63-2.6zm1.08 7.88c0-1.87-1.16-3.1-4.02-3.1-.94 0-2.03-.02-2.89-.07.08.94.1 1.97.1 3.04 0 1.02-.02 2.02-.1 3.04 1.14-.05 2.48-.07 3.67-.07 2.23 0 3.24-.95 3.24-2.84zm23.42-4.07c0 5.78-3.85 9.64-9.12 9.64-5.04 0-9.12-3.78-9.12-9.64 0-5.72 4.23-9.33 9.12-9.33 4.86 0 9.12 3.5 9.12 9.33zm-3.57 0c0-4.55-2.28-6.7-5.53-6.7-3.29 0-5.57 2.13-5.57 6.7 0 4.2 1.95 7 5.55 7 3.72 0 5.55-2.78 5.55-7zm23.86 0c0 5.78-3.84 9.64-9.11 9.64-5.04 0-9.12-3.78-9.12-9.64 0-5.72 4.23-9.33 9.12-9.33 4.86 0 9.11 3.5 9.11 9.33zm-3.57 0c0-4.55-2.28-6.7-5.52-6.7-3.29 0-5.57 2.13-5.57 6.7 0 4.2 1.95 7 5.55 7 3.72 0 5.54-2.78 5.54-7zm9.69 9.08c0 .1-.13.23-.23.23h-2.78c-.13 0-.23-.13-.23-.23V31.88c0-.13.1-.26.23-.26h2.78c.1 0 .23.13.23.26v4.21c0 1.08-.03 2.18-.08 3.05h.48c.44 0 1.7-1.3 3.45-3.43 1.01-1.2 2.23-2.68 3.37-3.89.12-.12.25-.2.4-.2h3.24c.13 0 .2.13.2.28 0 .13-.04.23-.12.28-.66.36-2.38 2.15-4.6 4.63-1.33 1.4-2.57 2.68-3.12 3.02.5.2 1.95 1.79 3.67 3.7 2.08 2.35 4.53 4.91 5.3 5.35.14.07.2.2.2.38 0 .28-.1.4-.23.4h-3.47c-.15 0-.33-.1-.46-.2a61.79 61.79 0 0 1-4.1-4.67c-1.78-2.23-3.17-3.63-3.73-3.63h-.5c.07.92.1 2.2.1 3.4z"/></defs><g><g transform="translate(-249 -29)"><use xlink:href="#5yhta"/></g></g></svg>